<?xml version="1.0" standalone="no"?>
<!DOCTYPE svg PUBLIC "-//W3C//DTD SVG 20010904//EN"
 "http://www.w3.org/TR/2001/REC-SVG-20010904/DTD/svg10.dtd">
<svg version="1.0" xmlns="http://www.w3.org/2000/svg"
 width="500.000000pt" height="500.000000pt" viewBox="0 0 500.000000 500.000000"
 preserveAspectRatio="xMidYMid meet">

<g transform="translate(0.000000,500.000000) scale(0.100000,-0.100000)"
fill="#000000" stroke="none">
<path d="M2310 4909 c-387 -27 -821 -178 -1155 -402 -219 -147 -438 -355 -586
-557 -109 -149 -126 -175 -198 -311 -134 -255 -204 -461 -263 -784 -9 -47 -13
-165 -13 -365 1 -293 1 -296 33 -450 63 -301 172 -575 335 -840 104 -169 375
-471 532 -592 404 -312 861 -487 1345 -517 466 -28 880 60 1290 276 221 116
378 231 559 407 346 339 578 762 675 1231 36 174 47 287 47 495 0 218 -12 338
-51 515 -101 452 -309 840 -629 1169 -367 377 -790 596 -1361 706 -54 10 -357
31 -415 28 -16 0 -82 -4 -145 -9z m-102 -667 c5 -32 -26 -64 -57 -60 -31 4
-37 41 -8 46 15 3 18 0 12 -17 -7 -25 16 -29 34 -7 9 11 8 18 -4 30 -9 9 -20
16 -25 16 -24 0 -62 -22 -95 -56 -24 -24 -33 -29 -25 -15 15 29 5 39 -23 23
-20 -12 -20 -11 2 8 13 11 32 20 42 20 10 0 33 9 51 20 44 27 92 23 96 -8z
m362 24 c0 -2 -7 -9 -15 -16 -13 -11 -14 -10 -9 4 5 14 24 23 24 12z m-50 -24
c0 -5 -6 -17 -14 -27 -13 -18 -14 -18 -9 8 5 24 23 39 23 19z m70 0 c0 -4 -10
-13 -22 -21 -23 -14 -23 -14 -4 8 20 22 26 25 26 13z m96 -104 c-50 -51 -120
-124 -154 -161 -34 -37 -62 -64 -62 -59 0 4 14 21 31 38 17 16 37 41 45 56 14
27 14 28 -15 22 -23 -5 -32 -2 -40 15 -10 17 -8 24 14 43 35 31 31 40 -17 38
-24 -1 -54 -1 -68 0 l-25 2 25 8 c37 12 112 11 170 -1 48 -10 52 -10 86 18 39
32 96 73 99 73 2 0 -38 -42 -89 -92z m-846 7 c18 -21 6 -29 -19 -13 -18 11
-26 10 -51 -4 -41 -23 -38 -13 3 12 39 24 51 25 67 5z m175 -25 c-9 -16 -18
-30 -21 -30 -2 0 2 14 11 30 9 17 18 30 21 30 2 0 -2 -13 -11 -30z m1225 10
c16 -16 18 -25 10 -40 -15 -27 -28 -25 -23 4 4 17 -2 28 -18 40 -19 13 -20 16
-6 16 9 0 26 -9 37 -20z m-500 -10 c0 -5 -16 -28 -36 -50 l-36 -40 43 0 c23 0
56 -4 73 -10 17 -5 45 -13 61 -17 l30 -7 -26 -4 c-15 -1 -54 4 -87 12 -95 25
-98 24 -185 -66 -73 -76 -75 -78 -25 -18 29 36 76 91 103 123 28 32 51 63 51
68 3 18 4 19 19 19 8 0 15 -4 15 -10z m470 -6 c0 -11 -6 -15 -20 -11 -27 7
-25 -8 2 -27 25 -18 17 -21 -13 -6 -21 12 -26 46 -6 53 24 10 37 7 37 -9z
m-1410 -4 c0 -6 -7 -13 -15 -16 -20 -8 -19 -21 3 -27 13 -4 11 -5 -5 -6 -26
-1 -32 26 -11 47 15 15 28 16 28 2z m1032 -12 c4 -12 -21 -48 -33 -48 -3 0 -4
11 -2 24 4 17 0 25 -14 29 -10 3 -5 5 14 6 17 0 33 -4 35 -11z m-782 -28 c-14
-11 -33 -22 -42 -25 -17 -6 -29 -37 -68 -183 -13 -45 -25 -80 -28 -78 -2 3 6
37 17 77 23 73 23 91 1 64 -14 -16 -38 -19 -58 -7 -9 7 -10 16 -1 41 14 40 6
50 -21 26 -11 -10 -20 -13 -20 -7 0 7 19 24 43 39 23 15 48 34 55 42 7 9 12
10 12 3 0 -18 30 -15 37 4 3 9 9 11 12 6 4 -6 19 -5 41 3 48 17 48 17 20 -5z
m379 -27 c14 -11 13 -12 -11 -13 -29 0 -34 12 -21 47 7 17 8 17 11 -2 3 -11
12 -25 21 -32z m491 38 c0 -17 -12 -41 -20 -41 -4 0 -10 11 -12 25 -4 19 -1
25 13 25 11 0 19 -4 19 -9z m86 -19 c15 -10 14 -42 -2 -42 -7 0 -27 -12 -46
-27 l-33 -27 24 27 c13 15 25 37 27 49 1 13 3 24 3 26 2 4 16 2 27 -6z m78
-28 c23 -9 19 -50 -6 -68 -32 -22 -42 -20 -18 4 25 25 26 46 3 59 -20 11 -4
15 21 5z m73 -54 c-41 -39 -42 -41 -22 -56 20 -15 19 -16 -5 -12 -43 5 -38 41
11 77 59 43 66 39 16 -9z m-1097 0 c0 -5 -4 -10 -10 -10 -5 0 -10 5 -10 10 0
6 5 10 10 10 6 0 10 -4 10 -10z m-546 -25 c-4 -8 -8 -15 -10 -15 -2 0 -4 7 -4
15 0 8 4 15 10 15 5 0 7 -7 4 -15z m1493 0 c0 -18 -19 -15 -25 3 -2 7 3 12 11
12 7 0 14 -7 14 -15z m-1287 -27 c-36 -17 -78 -37 -95 -44 l-30 -14 29 24 c31
25 119 65 146 65 8 0 -14 -14 -50 -31z m1575 2 c9 -14 -13 -40 -34 -40 -10 0
-26 -6 -36 -14 -18 -13 -17 -15 19 -30 40 -17 78 -13 97 10 9 11 9 17 0 28 -9
11 -8 15 5 20 17 7 34 -8 34 -31 0 -6 6 -14 13 -16 6 -3 2 -6 -10 -6 -19 -1
-68 -18 -83 -29 -2 -2 13 -19 35 -39 33 -29 35 -32 10 -18 -16 10 -39 26 -50
36 -11 10 -44 29 -73 42 l-52 24 55 23 c38 15 54 27 51 36 -6 16 10 19 19 4z
m-1805 -21 c0 -6 -4 -7 -10 -4 -5 3 -10 11 -10 16 0 6 5 7 10 4 6 -3 10 -11
10 -16z m2067 15 c-3 -3 -12 -4 -19 -1 -8 3 -5 6 6 6 11 1 17 -2 13 -5z m54
-20 c55 -28 21 -89 -38 -68 -36 12 -40 57 -5 62 15 2 22 -2 22 -12 0 -9 -7
-16 -16 -16 -23 0 -11 -24 14 -28 31 -5 30 41 0 62 -29 20 -16 20 23 0z
m-1801 -50 c0 -8 -4 -12 -10 -9 -5 3 -10 13 -10 21 0 8 5 12 10 9 6 -3 10 -13
10 -21z m1233 6 c-7 -25 22 -70 45 -71 9 0 12 -3 6 -5 -40 -17 -91 48 -64 81
17 20 19 19 13 -5z m105 -46 c-3 -14 -5 -12 -10 9 -3 19 -2 25 4 19 6 -6 8
-18 6 -28z m302 21 c16 -19 -3 -45 -32 -45 -18 0 -18 1 -3 16 12 12 13 19 4
30 -9 11 -8 14 4 14 8 0 20 -7 27 -15z m-2078 -25 c-2 -16 -6 -30 -8 -30 -2 0
-4 14 -4 30 0 17 4 30 8 30 5 0 7 -13 4 -30z m198 11 c5 -11 10 -30 9 -43 0
-15 -3 -18 -6 -8 -12 31 -36 40 -57 22 -15 -13 -18 -14 -11 -2 13 24 37 50 46
50 5 0 13 -9 19 -19z m1540 9 c0 -5 -4 -10 -10 -10 -5 0 -10 5 -10 10 0 6 5
10 10 10 6 0 10 -4 10 -10z m-1448 -101 c21 -14 41 -10 78 12 26 16 31 17 20
5 -17 -21 -63 -46 -85 -46 -28 0 -55 38 -55 78 l1 37 14 -39 c7 -21 20 -43 27
-47z m-332 40 c16 -30 8 -31 -13 -3 -10 13 -13 24 -8 24 6 0 15 -9 21 -21z
m159 -63 l-1 -41 -11 43 c-7 30 -14 41 -24 38 -11 -5 -11 -1 -2 16 11 21 12
21 25 3 8 -10 13 -37 13 -59z m2003 57 c-18 -7 -33 -39 -26 -57 9 -24 62 -28
142 -12 40 9 88 16 105 15 22 -1 11 -5 -33 -14 -92 -18 -178 -41 -271 -71 -44
-14 -83 -24 -85 -21 -3 3 36 18 85 33 50 16 91 31 91 34 0 3 -13 11 -30 17
-41 15 -49 41 -21 65 13 10 31 18 40 17 10 0 12 -2 3 -6z m76 -30 c-4 -24 -30
-30 -27 -7 2 11 0 25 -5 32 -7 12 -4 12 13 2 12 -6 21 -19 19 -27z m142 33 c0
-2 -11 -6 -25 -8 -14 -3 -25 -1 -25 3 0 5 11 9 25 9 14 0 25 -2 25 -4z m-2160
-57 c0 -5 -4 -9 -10 -9 -5 0 -10 7 -10 16 0 8 5 12 10 9 6 -3 10 -10 10 -16z
m347 -1 c-3 -8 -6 -5 -6 6 -1 11 2 17 5 13 3 -3 4 -12 1 -19z m-484 -15 c3
-16 1 -32 -4 -37 -5 -6 -9 -2 -9 12 0 30 -9 28 -52 -14 -21 -19 -38 -30 -38
-23 0 13 76 89 89 89 5 0 11 -12 14 -27z m96 -137 c2 -73 -6 -52 -12 34 -3 46
-2 63 3 45 4 -16 8 -52 9 -79z m2160 69 c-8 -7 -41 -16 -74 -19 -52 -5 -55 -4
-22 4 52 14 79 29 71 41 -4 7 3 6 16 -1 19 -10 20 -14 9 -25z m144 18 c-7 -2
-19 -2 -25 0 -7 3 -2 5 12 5 14 0 19 -2 13 -5z m-2385 -83 c0 -22 -1 -22 -8 5
-4 17 -8 41 -8 55 0 22 1 22 8 -5 4 -16 8 -41 8 -55z m-110 -38 c12 -37 22
-76 21 -87 -1 -16 -2 -15 -8 5 -5 19 -13 24 -29 22 -24 -3 -92 33 -92 49 0 17
27 9 50 -16 28 -30 50 -32 50 -5 0 34 -29 82 -46 76 -12 -4 -12 -2 -4 14 17
31 33 14 58 -58z m-225 -59 l6 -28 -14 30 c-8 17 -14 53 -13 80 l0 50 8 -52
c4 -29 10 -65 13 -80z m292 107 c8 7 15 8 15 2 0 -16 -29 -35 -45 -28 -8 3
-15 13 -15 22 0 13 3 14 15 4 12 -10 18 -10 30 0z m2396 -52 c29 -41 18 -54
-46 -50 -30 2 -55 7 -55 11 0 4 15 5 34 3 19 -2 42 1 52 6 16 9 15 13 -18 46
-19 19 -33 38 -30 41 7 6 38 -22 63 -57z m-121 37 c-7 -8 -10 -25 -7 -37 l6
-21 -21 21 c-18 17 -19 23 -8 36 7 9 19 16 27 16 13 0 13 -3 3 -15z m-2223
-57 c-3 -8 -6 -5 -6 6 -1 11 2 17 5 13 3 -3 4 -12 1 -19z m80 -115 c-2 -21 -4
-6 -4 32 0 39 2 55 4 38 2 -18 2 -50 0 -70z m2106 80 c-7 -2 -21 -2 -30 0 -10
3 -4 5 12 5 17 0 24 -2 18 -5z m-2416 -15 c6 -7 13 -22 17 -33 6 -18 5 -17
-14 3 -12 13 -28 21 -36 18 -8 -3 -14 1 -14 9 0 18 34 20 47 3z m240 -25 c-3
-10 -5 -4 -5 12 0 17 2 24 5 18 2 -7 2 -21 0 -30z m2393 -3 c0 -8 -15 -22 -33
-31 -60 -30 -42 -68 27 -55 26 5 36 13 38 29 l3 22 14 -24 c23 -41 1 -49 -114
-41 -55 4 -78 7 -52 8 44 2 47 3 37 22 -11 20 -6 27 45 64 17 12 18 16 5 32
-14 16 -14 16 8 3 12 -8 22 -21 22 -29z m-2672 -107 c6 -18 9 -33 7 -33 -6 0
-75 137 -75 147 1 14 56 -81 68 -114z m46 26 c-6 -11 -24 -2 -24 11 0 5 7 7
15 4 8 -4 12 -10 9 -15z m143 -1 c-3 -8 -6 -5 -6 6 -1 11 2 17 5 13 3 -3 4
-12 1 -19z m-207 -114 c0 -2 -4 -4 -10 -4 -5 0 -14 17 -20 38 -16 60 -24 66
-47 35 -11 -16 -28 -43 -37 -61 -10 -19 -19 -32 -22 -30 -5 5 23 60 56 110
l25 37 27 -61 c16 -33 28 -62 28 -64z m217 74 c-3 -8 -6 -5 -6 6 -1 11 2 17 5
13 3 -3 4 -12 1 -19z m2570 -35 c4 -12 -29 -23 -71 -23 -27 0 -28 -1 -13 -18
9 -10 24 -35 33 -57 14 -34 14 -37 0 -26 -8 7 -25 33 -36 57 l-22 44 -61 1
c-57 2 -54 3 33 11 52 5 99 14 105 19 11 11 27 7 32 -8z m114 -106 c10 -23 13
-37 5 -34 -6 2 -21 32 -33 68 -26 74 -28 88 -6 39 9 -19 24 -52 34 -73z
m-2950 33 c10 0 20 6 23 13 3 6 5 3 3 -7 -1 -10 -10 -24 -19 -30 -14 -8 -21
-6 -32 9 -18 24 -21 44 -4 27 7 -7 20 -12 29 -12z m2889 -26 c0 -10 -12 -14
-42 -13 -30 2 -35 3 -15 6 25 4 32 14 28 37 -1 5 5 4 13 -4 9 -7 16 -19 16
-26z m125 26 c7 -12 -2 -12 -30 0 -19 8 -19 9 2 9 12 1 25 -3 28 -9z m-3052
-85 c32 1 31 -18 -1 -23 -18 -3 -26 5 -42 40 -11 24 -20 39 -20 34 0 -5 -2 -7
-5 -4 -3 3 -2 13 1 23 6 14 11 8 24 -26 13 -37 20 -44 43 -44z m547 66 c24 -1
31 -4 21 -10 -7 -5 -14 -28 -15 -55 l-2 -46 54 0 c35 0 51 -4 47 -11 -4 -6
-28 -9 -54 -7 l-46 2 -3 -54 c-3 -53 -15 -80 -34 -80 -5 0 -3 7 5 15 11 10 15
43 16 123 l2 109 -43 6 c-61 8 -112 -4 -116 -28 -7 -36 -22 -41 -22 -7 0 18
-5 32 -12 33 -33 3 -74 -4 -87 -14 -12 -10 -12 -9 -3 9 10 19 18 20 134 19 68
-1 139 -3 158 -4z m151 -15 c-8 -9 -12 -50 -10 -114 2 -99 -3 -122 -22 -122
-6 0 -8 4 -5 9 9 13 11 215 2 229 -5 8 1 12 20 12 22 0 24 -3 15 -14z m214 4
c-3 -5 -27 -9 -53 -9 -26 1 -54 1 -62 0 -12 -1 -15 -21 -17 -106 -2 -94 0
-106 17 -115 31 -16 91 -12 106 8 7 9 14 12 14 5 0 -28 -33 -45 -74 -39 -52 9
-56 9 -86 1 -15 -4 -20 -3 -13 2 14 10 23 170 13 225 l-7 38 84 0 c52 0 82 -4
78 -10z m-1085 -33 c0 -5 -4 -5 -10 -2 -5 3 -10 14 -10 23 0 15 2 15 10 2 5
-8 10 -19 10 -23z m-26 -17 c-6 -5 -24 21 -24 34 0 6 6 1 14 -10 8 -10 12 -21
10 -24z m5 -34 c10 -12 8 -13 -8 -9 -12 3 -21 9 -21 14 0 14 16 11 29 -5z
m591 5 c0 -6 -4 -12 -9 -15 -5 -3 -9 -34 -10 -68 0 -53 -13 -92 -24 -77 -2 2
-1 41 1 87 4 72 6 82 23 82 10 0 19 -4 19 -9z m2383 2 c-7 -2 -21 -2 -30 0
-10 3 -4 5 12 5 17 0 24 -2 18 -5z m187 -12 c0 -13 -41 -21 -70 -13 -23 6 -21
7 15 13 22 3 43 7 48 8 4 0 7 -3 7 -8z m-2066 -25 c-4 -12 -19 -16 -55 -16
-27 0 -49 5 -49 10 0 6 23 10 50 10 31 0 50 4 50 12 0 6 2 9 5 6 3 -3 3 -13
-1 -22z m-974 -2 c10 -11 24 -14 54 -9 30 5 37 3 26 -4 -13 -9 -12 -11 3 -11
10 0 50 5 88 12 62 10 72 9 87 -5 15 -16 15 -17 -8 -17 -14 0 -49 -17 -78 -37
l-54 -37 3 -225 c2 -124 2 -308 1 -409 -1 -100 1 -230 3 -287 l5 -104 -73 -35
c-62 -31 -72 -33 -76 -19 -2 9 7 25 20 35 13 10 29 22 36 28 16 13 27 155 27
362 l1 177 -200 -2 -200 -3 -15 -29 c-12 -24 -14 -68 -12 -225 1 -107 4 -215
8 -240 l5 -45 -53 -32 c-29 -17 -69 -34 -88 -38 l-35 -6 44 39 43 38 16 123
c11 92 12 132 4 155 -7 21 -8 77 -3 171 5 77 7 149 4 160 -8 39 -6 77 4 83 13
9 22 199 13 275 -5 47 -3 60 9 67 32 19 -26 37 -96 31 -25 -2 -28 5 -13 29 7
12 35 15 145 15 129 0 176 -11 110 -26 -16 -4 -45 -13 -63 -21 l-33 -15 -4
-179 c-3 -98 -7 -195 -10 -214 -7 -40 14 -78 35 -65 7 4 81 7 164 6 112 -2
157 -6 173 -17 12 -8 27 -14 32 -14 15 0 30 55 26 97 -2 21 -6 92 -10 158 -3
66 -10 140 -15 165 -5 27 -4 50 1 56 12 15 -9 32 -50 40 -23 5 -30 11 -26 21
3 11 1 13 -10 9 -18 -7 -20 5 -3 22 16 16 23 15 38 -4z m1514 -18 c61 -15 102
-39 120 -72 6 -10 15 -22 20 -25 13 -10 -33 -32 -51 -24 -9 3 -26 -3 -38 -15
l-23 -21 -16 23 c-16 22 -15 24 3 39 24 20 17 28 -49 58 -55 24 -127 19 -186
-15 l-40 -24 -2 -376 c-2 -419 4 -383 -72 -423 -42 -23 -110 -37 -110 -24 0 5
16 15 35 22 19 7 40 21 46 33 10 19 34 258 30 308 -1 14 -3 113 -5 220 -2 107
-6 205 -10 218 -5 14 -3 29 4 37 10 12 7 17 -15 25 -14 5 -40 10 -56 10 -28 0
-43 19 -16 21 14 2 272 15 332 17 22 1 66 -5 99 -12z m1286 -11 c-7 -8 -22
-15 -34 -15 -23 0 -120 -53 -132 -72 -9 -15 -9 -839 1 -938 l7 -75 -59 -27
c-76 -35 -143 -51 -143 -33 0 6 18 19 41 28 24 10 43 24 46 37 3 11 11 20 18
20 20 0 25 41 14 101 -5 30 -10 63 -10 74 1 54 -1 705 -2 740 -1 22 -7 45 -13
50 -15 13 -25 55 -13 55 5 0 9 4 9 10 0 5 -7 7 -15 3 -10 -3 -15 0 -13 8 2 9
-8 15 -29 17 -32 3 -40 11 -26 25 3 4 87 7 186 7 158 0 178 -2 167 -15z m950
4 c0 -3 -11 -16 -25 -29 -23 -21 -27 -22 -69 -10 -32 9 -78 10 -153 5 -117 -7
-177 -20 -195 -42 -7 -8 -12 -58 -14 -121 l-2 -106 -33 -23 c-18 -12 -34 -21
-36 -20 -1 2 -3 56 -4 122 -2 118 -2 119 25 140 l28 22 -29 12 c-29 12 -91 15
-183 9 -30 -2 -76 -5 -101 -6 l-46 -2 -37 -80 c-20 -43 -36 -86 -36 -95 0 -8
-5 -15 -10 -15 -6 0 -8 10 -5 23 20 88 25 117 25 150 0 81 -35 75 460 74 242
-1 440 -4 440 -8z m-3754 -101 c26 -28 26 -29 4 -15 -34 23 -59 21 -70 -5 -8
-21 -9 -21 -9 8 -1 55 30 60 75 12z m-428 -13 c-3 -3 -9 2 -12 12 -6 14 -5 15
5 6 7 -7 10 -15 7 -18z m4166 -75 c-5 -5 -10 4 -11 23 -1 30 -1 31 9 9 7 -14
8 -26 2 -32z m-3734 -41 c0 -7 -10 1 -21 16 -18 22 -28 26 -50 21 -33 -6 -41
16 -11 33 14 9 23 4 50 -24 17 -19 32 -40 32 -46z m20 65 c0 -9 -5 -14 -12
-12 -18 6 -21 28 -4 28 9 0 16 -7 16 -16z m2943 -9 c-45 -19 -66 -99 -43 -160
5 -14 6 -24 1 -21 -5 3 -14 26 -20 52 -9 35 -9 55 0 83 16 51 27 61 63 61 l31
-1 -32 -14z m-1342 -71 c-12 -15 -21 -33 -21 -41 0 -8 -11 -29 -24 -46 -13
-18 -26 -41 -28 -52 -3 -19 -12 -20 -131 -23 -73 -1 -127 1 -127 7 0 15 31 23
105 26 39 1 82 8 97 15 34 16 58 65 58 119 0 25 5 43 13 45 6 2 26 7 42 12 27
9 30 7 33 -13 2 -13 -6 -35 -17 -49z m-828 34 c65 -25 151 -93 143 -114 -3 -8
0 -11 8 -8 7 3 17 -6 23 -19 10 -20 8 -23 -9 -23 -24 1 -29 -18 -16 -53 6 -19
11 -22 20 -13 7 7 19 12 27 11 11 0 9 -4 -5 -11 -20 -9 -22 -18 -21 -112 0
-92 -2 -107 -30 -166 -54 -118 -154 -175 -293 -168 -105 5 -223 65 -150 76 11
2 34 -8 52 -23 30 -25 37 -27 117 -23 78 3 91 6 138 37 41 27 56 45 78 93 38
84 39 185 5 287 -18 55 -22 75 -12 79 22 7 13 29 -29 67 -60 54 -112 75 -192
75 -91 0 -142 -14 -199 -56 -80 -58 -122 -146 -121 -254 1 -66 27 -175 44
-185 5 -4 9 -11 9 -17 0 -7 -5 -6 -14 1 -10 8 -16 9 -21 1 -10 -15 -28 -12
-22 4 4 9 1 13 -6 11 -19 -8 -49 74 -54 151 -7 99 27 200 91 272 24 26 103 69
161 88 69 22 210 17 278 -8z m1439 -4 c70 -23 106 -72 59 -80 -14 -3 -33 -11
-42 -20 -15 -13 -17 -13 -23 2 -4 9 -4 25 -1 35 9 29 -31 49 -100 49 -51 0
-65 -4 -83 -23 -21 -22 -21 -32 -24 -306 l-3 -284 -36 -24 c-20 -13 -54 -26
-75 -29 l-39 -5 37 21 c29 16 38 28 43 55 3 19 8 51 11 71 5 36 5 93 1 367
l-2 148 -37 6 c-56 8 -46 21 20 26 152 9 250 6 294 -9z m887 -93 c-4 -31 -8
-69 -9 -86 -1 -25 -2 -27 -9 -10 -4 11 -7 47 -5 80 1 33 3 76 4 95 l1 35 12
-29 c9 -19 10 -48 6 -85z m-3173 -48 c27 -23 63 -53 79 -68 l30 -26 -39 25
c-22 14 -43 23 -48 20 -4 -3 -8 -1 -8 5 0 6 -35 45 -77 87 -43 42 -57 59 -32
38 25 -21 68 -58 95 -81z m4 74 l35 -42 -35 25 c-19 14 -41 24 -47 22 -7 -2
-13 6 -13 18 0 32 22 23 60 -23z m50 17 c0 -17 -22 -14 -28 4 -2 7 3 12 12 12
9 0 16 -7 16 -16z m-207 -24 c3 -11 3 -20 1 -20 -2 0 -8 9 -14 20 -6 11 -7 20
-2 20 6 0 12 -9 15 -20z m-23 -15 c11 -13 10 -14 -4 -9 -9 3 -16 10 -16 15 0
13 6 11 20 -6z m3254 -24 c4 -5 -3 -7 -15 -4 -18 5 -20 3 -14 -16 7 -22 -10
-31 -18 -8 -10 29 31 54 47 28z m-738 -93 c-62 -120 -46 -108 -147 -108 -68 0
-90 3 -87 13 3 6 20 13 39 15 101 7 119 13 134 42 8 16 15 45 15 65 0 30 3 35
24 35 14 0 28 5 32 11 5 8 9 8 14 -1 4 -7 -6 -38 -24 -72z m-2499 66 c-3 -3
-12 -4 -19 -1 -8 3 -5 6 6 6 11 1 17 -2 13 -5z m113 -23 c0 -5 -7 -11 -15 -15
-15 -5 -20 5 -8 17 9 10 23 9 23 -2z m3051 -8 c13 -16 12 -17 -3 -4 -17 13
-22 21 -14 21 2 0 10 -8 17 -17z m372 -56 c-24 -36 -28 -52 -29 -112 0 -38 -2
-177 -4 -308 l-2 -238 -44 -30 c-54 -37 -96 -54 -152 -63 -29 -4 -41 -3 -37 4
3 5 15 10 27 10 56 0 106 59 113 135 3 26 7 51 11 56 5 9 14 278 14 464 1 136
2 137 54 130 36 -6 44 -4 50 12 7 17 8 17 18 0 8 -14 4 -28 -19 -60z m-286 38
c-7 -16 -52 -21 -61 -6 -3 4 6 6 19 3 17 -3 27 1 31 12 4 9 9 15 11 12 3 -3 3
-12 0 -21z m-1360 -20 c18 -14 38 -36 44 -47 10 -19 8 -25 -17 -47 -28 -24
-29 -29 -23 -76 17 -122 -36 -229 -133 -269 -43 -18 -172 -21 -214 -6 -45 17
-17 25 74 22 86 -4 87 -3 133 31 32 25 49 47 57 75 13 44 16 145 5 156 -5 4
-8 11 -8 14 -1 4 -9 23 -19 42 -10 19 -15 36 -10 37 37 13 39 23 9 47 -30 24
-30 25 -10 40 26 21 69 13 112 -19z m-1701 -41 c-7 -19 -39 -18 -66 4 l-23 18
37 -4 c28 -3 37 0 43 14 7 18 8 18 11 1 2 -10 1 -25 -2 -33z m3165 -11 c13
-16 12 -17 -3 -4 -17 13 -22 21 -14 21 2 0 10 -8 17 -17z m-830 -44 c54 -28
78 -74 48 -90 -18 -9 -19 -17 -13 -65 15 -122 -70 -214 -196 -214 -50 0 -80 7
-80 19 0 3 31 6 69 6 60 0 73 3 96 25 54 49 69 127 40 197 -14 33 -14 37 2 50
11 9 14 16 7 19 -6 3 -20 11 -30 19 -19 15 -19 15 0 30 24 18 31 18 57 4z
m1056 -25 c-3 -3 -12 -4 -19 -1 -8 3 -5 6 6 6 11 1 17 -2 13 -5z m-2903 -216
c11 -16 13 -25 4 -35 -16 -20 -34 -16 -53 13 -14 22 -15 28 -4 35 22 14 37 10
53 -13z m2441 -38 c10 -11 16 -20 13 -20 -3 0 -13 9 -23 20 -10 11 -16 20 -13
20 3 0 13 -9 23 -20z m-3107 -13 c8 -10 5 -13 -16 -12 -39 0 -42 -42 -6 -85
22 -26 24 -30 7 -20 -39 25 -68 101 -46 123 11 12 50 8 61 -6z m3261 -20 c8
-11 5 -13 -19 -9 -24 3 -32 0 -39 -19 l-10 -24 0 26 c-1 14 2 29 6 32 11 12
50 8 62 -6z m-109 -22 c13 -14 21 -25 18 -25 -2 0 -15 11 -28 25 -13 14 -21
25 -18 25 2 0 15 -11 28 -25z m-3138 -27 c-6 -6 -18 -8 -26 -5 -17 7 -22 37
-6 37 6 0 10 -4 10 -10 0 -18 20 -11 21 8 1 15 2 15 6 -2 3 -10 0 -23 -5 -28z
m118 -33 c17 -101 19 -138 6 -124 -6 7 -18 19 -26 27 -8 7 -9 11 -2 7 9 -5 11
13 7 82 -6 97 -1 100 15 8z m110 32 c0 -2 -10 -12 -21 -23 -22 -19 -22 -19
-10 4 10 18 31 31 31 19z m2970 -29 c0 -5 18 -32 39 -61 38 -51 96 -157 86
-157 -2 0 -13 17 -24 38 -11 21 -46 75 -79 119 -43 57 -55 79 -41 76 10 -3 19
-10 19 -15z m74 -13 c-4 -8 -11 -12 -16 -9 -6 4 -5 10 3 15 19 12 19 11 13 -6z
m-3044 -27 c0 -13 -23 -5 -28 10 -2 7 2 10 12 6 9 -3 16 -11 16 -16z m3135 -6
c-3 -3 -11 0 -18 7 -9 10 -8 11 6 5 10 -3 15 -9 12 -12z m-135 -103 c0 -5 -4
-9 -10 -9 -5 0 -10 -16 -10 -35 0 -42 -21 -47 -57 -13 -28 26 -31 49 -3 23 39
-35 69 13 37 60 -31 46 -27 58 7 21 20 -21 36 -42 36 -47z m120 36 c0 -5 -5
-3 -10 5 -5 8 -10 20 -10 25 0 6 5 3 10 -5 5 -8 10 -19 10 -25z m-193 -2 c2
-6 -5 -13 -17 -16 -12 -3 -20 0 -20 7 0 26 29 33 37 9z m-167 -135 c0 -13 -38
-9 -75 6 -36 15 -45 31 -23 38 15 5 97 -33 98 -44z m-3057 27 c43 -18 56 -35
27 -35 -28 0 -62 19 -55 30 3 6 -1 7 -9 4 -9 -3 -16 -1 -16 5 0 15 11 14 53
-4z m173 -13 c-7 -7 -46 9 -46 18 0 5 11 4 25 -2 14 -6 23 -13 21 -16z m3014
13 c0 -9 -6 -12 -16 -8 -28 11 -12 -40 19 -57 24 -13 29 -13 38 0 8 12 9 10 7
-10 -2 -17 -10 -26 -25 -28 -36 -5 -82 86 -56 111 12 12 33 7 33 -8z m481 -14
c12 -21 27 -30 60 -36 37 -7 40 -9 17 -12 -15 -3 -50 7 -82 22 -60 28 -73 40
-54 48 28 11 44 6 59 -22z m-3166 6 c11 -9 14 -16 7 -21 -15 -9 -65 12 -57 24
9 14 28 13 50 -3z m-360 -17 c19 -8 19 -9 -2 -9 -12 -1 -25 4 -28 9 -7 12 2
12 30 0z m45 -40 c-19 -13 -30 -13 -30 0 0 6 10 10 23 10 18 0 19 -2 7 -10z
m2897 -70 c8 0 17 10 22 22 8 21 8 21 14 -4 10 -39 36 -62 53 -47 17 14 18 5
4 -22 -15 -28 -28 -24 -47 16 -13 28 -19 32 -25 20 -14 -24 -33 -18 -67 20
-41 47 -40 66 1 26 17 -17 38 -31 45 -31z m-2598 24 c2 -2 -37 -4 -87 -4 -61
0 -92 -4 -92 -11 0 -8 -5 -7 -16 2 -14 12 -14 14 3 20 17 6 184 0 192 -7z m79
-11 c-10 -2 -28 -2 -40 0 -13 2 -5 4 17 4 22 1 32 -1 23 -4z m-158 -54 c8 -1
2 -4 -15 -8 -64 -14 -34 -69 40 -72 22 -1 30 -4 18 -6 -37 -7 -49 -30 -27 -55
18 -21 18 -21 -14 1 -23 16 -32 29 -29 42 3 11 -4 24 -18 33 -47 31 -40 84 10
71 11 -2 27 -5 35 -6z m97 -72 c43 -86 57 -95 149 -91 63 2 53 0 -46 -11 -69
-7 -126 -14 -127 -14 -1 -1 -3 -8 -5 -17 -3 -13 -5 -13 -23 0 -17 14 -18 17
-5 26 8 5 34 10 58 10 49 0 52 7 16 40 -21 21 -36 47 -73 125 -2 6 4 4 13 -4
10 -8 29 -37 43 -64z m-160 -27 c15 -25 36 -56 47 -69 l21 -24 -22 12 c-27 14
-53 50 -86 121 -22 46 -23 51 -6 30 12 -13 32 -45 46 -70z m2747 68 c9 -12 16
-32 16 -43 1 -20 1 -20 15 -1 11 15 15 16 15 5 0 -22 -50 -96 -102 -154 l-46
-50 -7 30 c-3 17 -17 62 -31 102 -13 39 -24 75 -24 80 0 12 45 -85 59 -130 7
-20 15 -37 18 -37 12 0 43 33 43 46 0 7 14 26 31 43 33 33 33 63 1 89 -27 21
-37 7 -35 -49 2 -47 0 -52 -11 -36 -15 19 -46 23 -46 5 0 -6 -3 -9 -6 -6 -9
10 16 48 31 48 8 0 15 6 15 14 0 28 20 66 34 66 8 0 22 -10 30 -22z m-2795
-74 c10 -9 -35 -3 -49 6 -11 8 -7 9 15 4 17 -4 32 -8 34 -10z m2938 -6 c-3 -8
-6 -5 -6 6 -1 11 2 17 5 13 3 -3 4 -12 1 -19z m-328 -53 c25 -81 49 -127 61
-120 6 4 10 2 10 -4 0 -5 -4 -12 -9 -15 -15 -10 -41 5 -41 23 0 9 -11 52 -25
95 -27 85 -27 86 -20 86 2 0 13 -29 24 -65z m-2199 -61 c-41 -7 -77 -13 -80
-14 -3 0 3 -7 13 -15 26 -19 17 -47 -18 -56 -26 -7 -28 -6 -12 5 22 17 22 43
-2 55 -18 10 -91 4 -91 -8 0 -13 94 -111 106 -111 8 0 14 -5 14 -10 0 -18 -56
17 -104 65 -25 26 -46 52 -46 60 0 13 27 28 39 21 3 -2 47 2 96 9 118 17 183
17 85 -1z m2185 -35 c0 -8 -8 -13 -17 -11 -14 2 -18 -4 -18 -26 0 -39 25 -60
50 -44 17 10 18 9 13 -6 -22 -58 -73 -29 -73 42 0 42 15 69 35 63 5 -2 10 -10
10 -18z m-2167 -87 c-2 -9 -14 -18 -28 -20 -18 -2 -21 0 -11 7 8 5 12 18 8 30
-4 18 -2 19 15 10 10 -6 18 -18 16 -27z m2085 14 c8 -20 -4 -28 -20 -15 -10 9
-13 5 -13 -24 0 -44 23 -66 51 -49 26 17 24 -3 -3 -22 -29 -21 -55 -5 -64 39
-9 51 33 112 49 71z m-2027 -65 c-4 -5 -2 -11 4 -13 5 -1 -11 -3 -38 -4 l-47
-1 35 13 c43 16 53 17 46 5z m-93 -28 c-17 -6 39 -53 63 -53 9 0 14 -3 11 -6
-7 -7 36 -44 51 -44 5 0 15 -7 22 -15 36 -43 -54 9 -126 73 -38 34 -45 45 -34
52 8 5 17 6 20 3 3 -3 -1 -8 -7 -10z m141 1 c33 -13 13 -54 -26 -54 -6 0 -6 6
2 15 7 8 10 22 6 30 -6 17 -4 18 18 9z m231 -21 c-39 -20 -75 -53 -75 -69 0
-7 7 -20 16 -28 19 -19 6 -21 -18 -2 -24 18 -23 38 5 63 25 23 77 52 92 52 6
0 -3 -7 -20 -16z m1675 -43 c6 0 10 -15 10 -32 l0 -33 -20 38 c-11 20 -20 49
-19 64 1 27 1 27 10 -4 5 -18 14 -33 19 -33z m-70 34 c0 -17 -22 -14 -28 4 -2
7 3 12 12 12 9 0 16 -7 16 -16z m-1766 -20 c25 -10 19 -43 -10 -54 -39 -15
-53 -11 -21 6 28 15 36 39 15 47 -7 3 -10 6 -6 6 3 1 13 -2 22 -5z m1747 -65
c8 -5 21 -1 33 9 18 16 18 16 7 -5 -15 -29 -27 -36 -51 -28 -16 5 -20 15 -19
53 1 46 1 46 9 13 4 -18 14 -37 21 -42z m-147 -14 c-10 -8 -31 -17 -46 -20
-15 -4 -32 -13 -39 -21 -6 -8 -19 -14 -28 -14 -23 1 11 26 74 55 53 24 71 24
39 0z m82 -42 c16 -6 9 -23 -10 -23 -17 0 -27 36 -18 58 6 14 7 13 10 -6 2
-13 10 -26 18 -29z m-1614 21 c-13 -9 -21 -22 -18 -30 3 -9 -2 -14 -14 -14
-31 0 -25 36 8 48 41 15 49 14 24 -4z m413 -62 c-96 -93 -247 -206 -186 -139
24 27 24 27 3 27 -16 0 -20 4 -15 16 5 14 2 16 -20 11 -36 -10 -57 1 -57 29 0
48 110 86 118 42 2 -13 -3 -18 -17 -18 -14 0 -19 5 -15 15 4 9 1 15 -7 15 -19
0 -49 -31 -49 -52 0 -25 59 -24 93 2 35 28 41 25 12 -5 -14 -13 -25 -29 -25
-35 0 -26 37 -3 132 79 57 49 105 90 108 90 3 0 -31 -34 -75 -77z m952 56 c-3
-8 -6 -5 -6 6 -1 11 2 17 5 13 3 -3 4 -12 1 -19z m-197 -23 c25 -13 30 -22 30
-53 0 -21 -7 -47 -16 -58 -14 -18 -15 -18 -4 4 38 78 -73 135 -144 75 -20 -17
-20 -17 -6 1 17 21 65 45 93 46 10 0 31 -7 47 -15z m-1010 -5 c0 -5 -4 -10
-10 -10 -5 0 -10 5 -10 10 0 6 5 10 10 10 6 0 10 -4 10 -10z m-74 -35 c-1 -26
-5 -35 -16 -33 -22 5 -25 40 -4 55 10 7 18 13 19 13 1 0 1 -16 1 -35z m764
-40 c-22 -41 -37 -75 -33 -75 3 0 -4 -11 -17 -26 -21 -21 -22 -27 -10 -34 21
-14 74 -12 88 2 9 9 12 9 12 0 0 -7 10 -12 23 -12 18 0 19 -2 7 -10 -20 -13
-125 -10 -175 6 -34 10 -36 12 -13 13 27 1 51 33 120 160 16 28 30 51 33 51 3
0 -13 -34 -35 -75z m504 20 c-5 -42 -4 -55 7 -55 10 0 10 -3 1 -12 -9 -9 -15
-9 -23 -1 -9 9 -21 4 -50 -19 -22 -18 -44 -28 -53 -25 -25 10 -19 62 10 96 25
31 60 43 51 19 -2 -7 -11 -12 -19 -10 -9 1 -21 -4 -27 -12 -15 -18 -11 -68 6
-74 22 -7 72 54 85 102 7 25 14 46 15 46 2 0 0 -25 -3 -55z m169 21 c12 -10
15 -16 7 -21 -16 -10 -40 2 -40 20 0 18 9 19 33 1z m-1643 -16 c-18 -12 -43
-13 -36 -2 2 4 15 8 28 9 18 2 19 0 8 -7z m1144 -31 c2 -13 5 -27 5 -31 1 -5
11 -9 24 -9 19 -1 20 -2 3 -6 -24 -6 -46 21 -46 56 0 29 8 24 14 -10z m426
-13 c-14 -14 -40 2 -40 24 0 20 1 20 24 3 14 -10 21 -22 16 -27z m257 28 c3
-9 -2 -23 -12 -32 -17 -16 -17 -16 -11 10 4 17 1 28 -7 31 -7 3 -5 6 6 6 10 1
20 -6 24 -15z m-1774 -14 c-3 -11 -9 -20 -14 -20 -14 0 -11 28 4 33 6 3 13 6
14 6 0 1 -1 -8 -4 -19z m-53 6 c0 -2 -7 -7 -16 -10 -8 -3 -12 -2 -9 4 6 10 25
14 25 6z m1200 -26 c0 -15 -5 -12 -26 11 -19 22 -19 22 4 10 12 -6 22 -16 22
-21z m654 1 c-32 -55 -85 -66 -97 -21 -5 21 -5 21 13 5 23 -21 53 -13 74 20
23 35 31 31 10 -4z m-1276 -12 c2 -14 -4 -31 -12 -38 -12 -10 -14 -9 -9 10 4
15 -1 27 -18 41 l-24 19 30 -3 c24 -2 31 -8 33 -29z m267 -19 c3 -5 1 -10 -4
-10 -6 0 -11 5 -11 10 0 6 2 10 4 10 3 0 8 -4 11 -10z m199 -7 c4 -9 0 -23 -9
-32 -12 -12 -15 -13 -15 -1 0 7 -7 22 -17 32 -15 17 -15 18 9 18 15 0 29 -7
32 -17z m-554 -29 c0 -17 -22 -14 -28 4 -2 7 3 12 12 12 9 0 16 -7 16 -16z
m773 -30 c-17 -12 -173 -20 -161 -9 8 8 96 20 145 21 26 0 29 -2 16 -12z m157
-50 c0 -8 -4 -12 -10 -9 -5 3 -10 13 -10 21 0 8 5 12 10 9 6 -3 10 -13 10 -21z
m-1043 10 c-3 -3 -12 -4 -19 -1 -8 3 -5 6 6 6 11 1 17 -2 13 -5z m66 -14 c-3
-12 -8 -19 -11 -16 -5 6 5 36 12 36 2 0 2 -9 -1 -20z m907 -15 c-7 -9 -15 -13
-19 -10 -3 3 1 10 9 15 21 14 24 12 10 -5z m26 -21 c-4 -9 -9 -15 -11 -12 -3
3 -3 13 1 22 4 9 9 15 11 12 3 -3 3 -13 -1 -22z m-628 -3 c21 -13 10 -46 -16
-49 -12 -2 -22 1 -22 7 0 10 14 15 33 12 16 -2 5 17 -15 27 -14 6 -17 11 -8
11 8 0 21 -3 28 -8z m-58 -16 c-17 -21 13 -55 49 -55 20 0 23 -2 11 -10 -21
-13 -64 -12 -78 2 -17 17 -15 38 5 60 19 22 31 24 13 3z m425 -14 c0 -17 -31
-38 -41 -28 -4 3 -1 14 7 23 11 14 10 16 -11 12 -35 -4 -37 -34 -3 -52 l28
-16 -35 2 c-41 3 -51 29 -24 59 21 23 79 23 79 0z m-238 -26 c-28 -25 -70 -32
-95 -16 -22 14 16 23 40 10 16 -9 26 -7 47 9 36 29 42 26 8 -3z m248 -15 c-3
-5 -12 -10 -18 -10 -7 0 -6 4 3 10 19 12 23 12 15 0z"/>
<path d="M2525 4100 c-22 -25 -13 -50 19 -50 24 0 86 44 86 61 0 5 -20 9 -43
9 -31 0 -49 -6 -62 -20z"/>
<path d="M1913 4022 c-19 -12 -32 -56 -22 -75 20 -35 57 -11 77 51 11 31 10
32 -16 32 -15 0 -32 -4 -39 -8z"/>
</g>
</svg>
